<?xml version="1.0" encoding="utf-8"?>
<!-- Generator: Adobe Illustrator 27.5.0, SVG Export Plug-In . SVG Version: 6.00 Build 0)  -->
<svg version="1.1" xmlns="http://www.w3.org/2000/svg" xmlns:xlink="http://www.w3.org/1999/xlink" x="0px" y="0px"
	 viewBox="0 0 500 500" style="enable-background:new 0 0 500 500;" xml:space="preserve">
<g id="Background_Simple">
	<g>
		<path style="fill:#92E3A9;" d="M383.347,130.332c-3.319-6.62-6.798-13.141-10.757-19.355
			C326.905,39.272,204.55,0.236,143.923,74.353c-14.45,17.665-19.486,39.011-29.212,59.27
			c-22.121,46.076-63.45,73.623-89.365,116.29c-20.088,33.074-17.41,75.463-6.204,111.217
			c12.177,38.852,33.607,65.986,67.886,86.612c38.429,23.123,79.53,16.703,121.069,8.657c18.681-3.619,37.941-7.311,57.042-5.93
			c23.914,1.729,47.525,8.695,71.251,12.082c24.675,3.522,50.276,4.354,74.045-3.32c76.12-24.576,94.153-139.742,62.851-205.714
			c-11.08-23.352-29.859-41.368-47.297-59.647C407.166,174.138,395.628,154.827,383.347,130.332z"/>
		<path style="opacity:0.7;fill:#FFFFFF;" d="M383.347,130.332c-3.319-6.62-6.798-13.141-10.757-19.355
			C326.905,39.272,204.55,0.236,143.923,74.353c-14.45,17.665-19.486,39.011-29.212,59.27
			c-22.121,46.076-63.45,73.623-89.365,116.29c-20.088,33.074-17.41,75.463-6.204,111.217
			c12.177,38.852,33.607,65.986,67.886,86.612c38.429,23.123,79.53,16.703,121.069,8.657c18.681-3.619,37.941-7.311,57.042-5.93
			c23.914,1.729,47.525,8.695,71.251,12.082c24.675,3.522,50.276,4.354,74.045-3.32c76.12-24.576,94.153-139.742,62.851-205.714
			c-11.08-23.352-29.859-41.368-47.297-59.647C407.166,174.138,395.628,154.827,383.347,130.332z"/>
	</g>
</g>
<g id="Floor">
	<g>
		
			<line style="fill:none;stroke:#263238;stroke-linecap:round;stroke-linejoin:round;stroke-miterlimit:10;" x1="467.881" y1="457.644" x2="484.07" y2="457.644"/>
		
			<line style="fill:none;stroke:#263238;stroke-linecap:round;stroke-linejoin:round;stroke-miterlimit:10;" x1="18.053" y1="457.644" x2="459.534" y2="457.644"/>
	</g>
</g>
<g id="Plant">
	<g>
		<g>
			<path style="fill:none;stroke:#263238;stroke-width:3;stroke-linecap:round;stroke-linejoin:round;stroke-miterlimit:10;" d="
				M453.312,278.496c0,0-10.114,28.761-24.336,77.433c-14.223,48.672-12.326,79.013-12.326,79.013"/>
			<path style="fill:none;stroke:#263238;stroke-width:3;stroke-linecap:round;stroke-linejoin:round;stroke-miterlimit:10;" d="
				M414.122,254.16c0,0-9.482,49.936-4.109,79.013c5.373,29.077-7.667,90.11-7.667,90.11"/>
			<path style="fill:none;stroke:#263238;stroke-width:3;stroke-linecap:round;stroke-linejoin:round;stroke-miterlimit:10;" d="
				M387.257,292.719c0,0,0.632,32.553,7.901,60.05c7.269,27.497,13.59,64.791,11.062,81.226"/>
			<path style="fill:#92E3A9;" d="M455.253,262.931c0,0,0.211-8.379-5.277-18.435c-5.488-10.055-12.031-13.407-12.031-13.407
				s8.232,6.913,10.132,12.988c1.9,6.075,5.066,17.387,5.066,17.387s-3.588-12.15-11.398-18.435
				c-7.81-6.285-13.087-8.379-13.087-8.379s9.498,7.123,15.198,13.617c5.699,6.494,6.544,14.036,6.544,14.036
				s-7.388-11.941-15.409-15.502c-8.021-3.561-12.031-4.609-12.031-4.609s9.076,3.98,14.564,8.798
				c5.488,4.818,9.288,12.569,9.288,12.569s-8.232-6.913-16.675-9.008c-8.443-2.095-11.609-2.095-11.609-2.095
				s7.177,1.676,15.831,6.285c8.654,4.609,10.976,8.799,10.976,8.799s-5.699-3.352-11.398-2.933
				c-5.699,0.419-17.52,5.028-17.52,5.028s10.554-3.561,17.52-3.352c6.966,0.21,11.82,6.285,11.82,6.285s-5.699-5.028-15.409,0
				c-9.71,5.028-12.665,11.522-12.665,11.522s6.332-6.494,14.353-8.799c8.021-2.304,12.031,0.419,12.031,0.419
				s-8.232,2.514-12.031,8.17c-3.799,5.656-5.277,17.178-5.277,17.178s2.322-12.779,7.177-16.549
				c4.855-3.771,12.454-5.237,12.454-5.237s-4.644,1.676-9.71,7.961c-5.066,6.285-4.855,21.787-4.855,21.787
				s1.266-12.779,4.644-17.806c3.377-5.028,9.71-8.17,9.71-8.17s-2.744-1.885-4.433,11.103c-1.689,12.988,0.211,22.415,0.211,22.415
				s0.633-16.759,2.322-21.996c1.689-5.237,4.011-9.636,4.011-9.636s-2.111,17.178-1.267,22.834
				c0.844,5.656,2.322,11.103,2.322,11.103s-0.844-10.684,0.211-18.435c1.055-7.751,2.111-13.826,2.111-13.826l1.9,14.245
				l-0.211,18.016l2.533-16.969l-1.689-15.083c0,0,3.377,4.19,5.066,12.15c1.689,7.961,1.689,16.13,1.689,16.13
				s1.478-13.407,0.422-19.273c-1.055-5.866-2.322-10.893-2.322-10.893s5.066,0,7.599,12.36c2.533,12.36,2.322,18.016,2.322,18.016
				s3.166-8.589-0.633-19.692c-3.799-11.103-5.277-13.407-5.277-13.407s5.699,0.628,10.765,8.589
				c5.066,7.961,5.488,15.502,5.488,15.502s-0.211-11.312-4.011-18.016c-3.799-6.704-11.82-8.379-11.82-8.379
				s8.654-2.933,16.042,4.609c7.388,7.542,10.554,16.13,10.554,16.13s-4.855-14.455-10.343-19.692
				c-5.488-5.237-13.087-4.609-13.087-4.609s8.232-2.304,15.198-1.257s13.509,8.798,13.509,8.798s-2.955-8.798-12.454-10.684
				c-9.498-1.885-14.775,1.466-14.775,1.466s8.654-8.17,16.886-7.123c8.232,1.047,12.876,4.818,12.876,4.818
				s-8.232-7.332-14.564-7.123c-6.332,0.21-15.198,6.075-15.198,6.075s1.267-7.332,11.187-11.522
				c9.921-4.19,14.353-3.352,14.353-3.352s-13.087,0.419-20.475,4.818c-7.388,4.399-8.654,6.913-8.654,6.913
				s6.543-12.779,12.665-18.016c6.121-5.237,11.82-6.494,11.82-6.494s-10.976,2.095-16.464,7.542
				c-5.488,5.447-8.443,12.36-8.443,12.36s0.422-7.751,3.166-13.617c2.744-5.866,9.287-10.893,9.287-10.893
				s-6.965,2.304-10.976,10.055s-6.121,13.617-6.121,13.617s-1.267-7.332,2.744-17.597c4.011-10.265,5.488-14.036,5.488-14.036
				s-7.81,10.055-9.499,18.016C456.519,257.065,455.253,262.931,455.253,262.931z"/>
			<path style="fill:#92E3A9;" d="M418.563,236.307c0,0,0.211-8.38-5.277-18.435c-5.488-10.055-12.031-13.407-12.031-13.407
				s8.232,6.913,10.132,12.988c1.9,6.075,5.066,17.387,5.066,17.387s-3.588-12.15-11.398-18.435
				c-7.81-6.285-13.087-8.38-13.087-8.38s9.499,7.123,15.197,13.617c5.699,6.494,6.544,14.035,6.544,14.035
				s-7.388-11.941-15.409-15.502c-8.021-3.561-12.031-4.609-12.031-4.609s9.076,3.98,14.564,8.798
				c5.488,4.818,9.287,12.569,9.287,12.569s-8.232-6.913-16.675-9.008c-8.443-2.095-11.609-2.095-11.609-2.095
				s7.177,1.676,15.831,6.285c8.654,4.609,10.976,8.798,10.976,8.798s-5.699-3.352-11.398-2.933
				c-5.699,0.419-17.519,5.028-17.519,5.028s10.554-3.561,17.519-3.352c6.966,0.209,11.82,6.285,11.82,6.285s-5.699-5.028-15.409,0
				c-9.71,5.028-12.665,11.522-12.665,11.522s6.332-6.494,14.353-8.799c8.021-2.304,12.031,0.419,12.031,0.419
				s-8.232,2.514-12.031,8.17c-3.799,5.656-5.277,17.178-5.277,17.178s2.322-12.779,7.177-16.549
				c4.855-3.771,12.454-5.237,12.454-5.237s-4.644,1.676-9.71,7.96c-5.066,6.285-4.855,21.787-4.855,21.787
				s1.266-12.779,4.644-17.806c3.377-5.028,9.709-8.17,9.709-8.17s-2.744-1.885-4.433,11.103
				c-1.689,12.988,0.211,22.415,0.211,22.415s0.633-16.759,2.322-21.996c1.689-5.237,4.01-9.636,4.01-9.636
				s-2.111,17.178-1.266,22.834c0.844,5.656,2.322,11.103,2.322,11.103s-0.844-10.684,0.211-18.435
				c1.055-7.751,2.111-13.826,2.111-13.826l1.9,14.245l-0.211,18.016l2.533-16.969l-1.689-15.083c0,0,3.377,4.19,5.066,12.15
				c1.689,7.96,1.689,16.131,1.689,16.131s1.478-13.407,0.422-19.273c-1.055-5.866-2.322-10.893-2.322-10.893s5.066,0,7.599,12.36
				c2.533,12.36,2.322,18.016,2.322,18.016s3.166-8.589-0.633-19.692c-3.799-11.103-5.277-13.407-5.277-13.407
				s5.699,0.629,10.765,8.589c5.066,7.961,5.488,15.502,5.488,15.502s-0.211-11.312-4.01-18.016c-3.799-6.704-11.82-8.38-11.82-8.38
				s8.654-2.933,16.042,4.609c7.388,7.542,10.554,16.131,10.554,16.131s-4.855-14.455-10.343-19.692
				c-5.488-5.237-13.087-4.609-13.087-4.609s8.232-2.304,15.198-1.257c6.966,1.047,13.509,8.799,13.509,8.799
				s-2.955-8.799-12.454-10.684c-9.498-1.885-14.775,1.466-14.775,1.466s8.654-8.17,16.886-7.122
				c8.232,1.048,12.876,4.818,12.876,4.818s-8.232-7.332-14.564-7.123c-6.332,0.21-15.198,6.075-15.198,6.075
				s1.266-7.332,11.187-11.522c9.921-4.19,14.353-3.352,14.353-3.352s-13.087,0.419-20.475,4.818s-8.654,6.913-8.654,6.913
				s6.543-12.779,12.665-18.016c6.121-5.237,11.82-6.494,11.82-6.494s-10.976,2.095-16.464,7.542
				c-5.488,5.447-8.443,12.36-8.443,12.36s0.422-7.751,3.166-13.617c2.744-5.865,9.287-10.893,9.287-10.893
				s-6.965,2.304-10.976,10.055c-4.01,7.751-6.121,13.617-6.121,13.617s-1.267-7.332,2.744-17.597
				c4.01-10.265,5.488-14.036,5.488-14.036s-7.81,10.055-9.499,18.016C419.83,230.441,418.563,236.307,418.563,236.307z"/>
			<path style="fill:#92E3A9;" d="M387.618,279.049c0,0,0.211-8.379-5.277-18.435c-5.488-10.055-12.031-13.407-12.031-13.407
				s8.232,6.913,10.132,12.988c1.9,6.075,5.066,17.387,5.066,17.387s-3.588-12.15-11.398-18.435
				c-7.81-6.285-13.087-8.379-13.087-8.379s9.499,7.123,15.198,13.617c5.699,6.494,6.543,14.036,6.543,14.036
				s-7.388-11.941-15.409-15.502c-8.021-3.561-12.031-4.609-12.031-4.609s9.076,3.98,14.564,8.798
				c5.488,4.818,9.287,12.569,9.287,12.569s-8.232-6.913-16.675-9.008c-8.443-2.095-11.609-2.095-11.609-2.095
				s7.177,1.676,15.831,6.285c8.654,4.609,10.976,8.798,10.976,8.798s-5.699-3.352-11.398-2.933
				c-5.699,0.419-17.519,5.028-17.519,5.028s10.554-3.561,17.519-3.352c6.966,0.21,11.82,6.285,11.82,6.285s-5.699-5.028-15.409,0
				c-9.71,5.028-12.665,11.522-12.665,11.522s6.332-6.494,14.353-8.799c8.021-2.304,12.031,0.419,12.031,0.419
				s-8.232,2.514-12.031,8.17c-3.799,5.656-5.277,17.178-5.277,17.178s2.322-12.779,7.177-16.549
				c4.855-3.771,12.454-5.237,12.454-5.237s-4.644,1.676-9.71,7.961c-5.066,6.284-4.855,21.787-4.855,21.787
				s1.267-12.779,4.644-17.806c3.377-5.028,9.71-8.17,9.71-8.17s-2.744-1.885-4.433,11.103c-1.689,12.988,0.211,22.415,0.211,22.415
				s0.633-16.759,2.322-21.996c1.689-5.237,4.01-9.636,4.01-9.636s-2.111,17.178-1.266,22.834
				c0.844,5.656,2.322,11.103,2.322,11.103s-0.844-10.684,0.211-18.435c1.055-7.751,2.111-13.826,2.111-13.826l1.9,14.245
				l-0.211,18.016l2.533-16.968l-1.689-15.083c0,0,3.377,4.19,5.066,12.15c1.689,7.961,1.689,16.131,1.689,16.131
				s1.477-13.407,0.422-19.273c-1.055-5.866-2.322-10.893-2.322-10.893s5.066,0,7.599,12.36c2.533,12.36,2.322,18.016,2.322,18.016
				s3.166-8.589-0.633-19.692c-3.799-11.103-5.277-13.407-5.277-13.407s5.699,0.628,10.765,8.589
				c5.066,7.961,5.488,15.502,5.488,15.502s-0.211-11.312-4.011-18.016c-3.799-6.704-11.82-8.379-11.82-8.379
				s8.654-2.933,16.042,4.609c7.388,7.542,10.554,16.131,10.554,16.131s-4.855-14.455-10.343-19.692
				c-5.488-5.237-13.087-4.609-13.087-4.609s8.232-2.304,15.198-1.257c6.966,1.047,13.509,8.798,13.509,8.798
				s-2.955-8.798-12.454-10.684c-9.499-1.885-14.775,1.466-14.775,1.466s8.654-8.17,16.886-7.123
				c8.232,1.048,12.876,4.818,12.876,4.818s-8.232-7.332-14.564-7.122c-6.332,0.21-15.197,6.075-15.197,6.075
				s1.266-7.332,11.187-11.522c9.921-4.19,14.353-3.352,14.353-3.352s-13.087,0.419-20.475,4.818
				c-7.388,4.399-8.654,6.913-8.654,6.913s6.543-12.779,12.665-18.016c6.121-5.237,11.82-6.494,11.82-6.494
				s-10.976,2.095-16.464,7.542c-5.488,5.447-8.443,12.36-8.443,12.36s0.422-7.751,3.166-13.617
				c2.744-5.866,9.287-10.893,9.287-10.893s-6.966,2.304-10.976,10.055c-4.01,7.751-6.121,13.617-6.121,13.617
				s-1.267-7.332,2.744-17.597c4.01-10.265,5.488-14.036,5.488-14.036s-7.81,10.055-9.499,18.016
				C388.884,273.184,387.618,279.049,387.618,279.049z"/>
			
				<rect x="390.119" y="422.033" style="fill:#B0B0B0;stroke:#263238;stroke-linecap:round;stroke-linejoin:round;stroke-miterlimit:10;" width="40.069" height="38.575"/>
		</g>
	</g>
</g>
<g id="Gears">
	<path style="opacity:0.3;fill:none;stroke:#000000;stroke-linecap:round;stroke-linejoin:round;stroke-miterlimit:10;" d="
		M316.235,289.305v-9.903l-8.88-0.931c-0.545-4.41-1.693-8.633-3.363-12.583l7.217-5.241l-4.951-8.576l-8.158,3.635
		c-2.633-3.474-5.732-6.573-9.206-9.206l3.635-8.158l-8.576-4.951l-5.241,7.217c-3.95-1.669-8.173-2.818-12.583-3.363l-0.931-8.88
		h-9.903l-0.931,8.88c-4.41,0.545-8.633,1.693-12.583,3.363l-5.241-7.217l-8.576,4.951l3.635,8.158
		c-3.473,2.633-6.573,5.732-9.206,9.206l-8.158-3.635l-4.951,8.576l7.217,5.241c-1.669,3.95-2.818,8.173-3.363,12.583l-8.88,0.931
		v9.903l8.88,0.931c0.545,4.41,1.693,8.633,3.363,12.583l-7.217,5.241l4.951,8.576l8.158-3.635c2.633,3.474,5.732,6.573,9.206,9.206
		l-3.635,8.158l8.576,4.951l5.241-7.217c3.95,1.669,8.173,2.818,12.583,3.363l0.931,8.879h9.903l0.931-8.879
		c4.41-0.545,8.633-1.694,12.583-3.363l5.241,7.217l8.576-4.951l-3.635-8.158c3.474-2.633,6.573-5.732,9.206-9.206l8.158,3.635
		l4.951-8.576l-7.217-5.241c1.669-3.95,2.818-8.173,3.363-12.583L316.235,289.305z M284.606,305.311
		c-5.893,6.843-14.62,11.176-24.359,11.176c-17.746,0-32.133-14.386-32.133-32.133c0-17.746,14.386-32.133,32.133-32.133
		c17.746,0,32.133,14.386,32.133,32.133c0,4.004-0.732,7.836-2.07,11.371"/>
	<path style="opacity:0.3;fill:none;stroke:#000000;stroke-linecap:round;stroke-linejoin:round;stroke-miterlimit:10;" d="
		M142.577,60.77v-7.026l-6.3-0.66c-0.387-3.129-1.201-6.125-2.386-8.927l5.12-3.718l-3.513-6.084l-5.788,2.579
		c-1.868-2.464-4.067-4.663-6.531-6.531l2.579-5.788l-6.084-3.513l-3.718,5.12c-2.802-1.184-5.799-1.999-8.927-2.386l-0.66-6.3
		h-7.026l-0.66,6.3c-3.129,0.387-6.125,1.202-8.927,2.386l-3.718-5.12l-6.084,3.513l2.579,5.788
		c-2.464,1.868-4.663,4.067-6.531,6.531l-5.788-2.579l-3.513,6.084l5.12,3.718c-1.184,2.802-1.999,5.799-2.386,8.927l-6.3,0.66
		v7.026l6.3,0.66c0.387,3.129,1.201,6.125,2.386,8.927l-5.12,3.718l3.513,6.084l5.788-2.579c1.868,2.464,4.067,4.663,6.531,6.531
		l-2.579,5.788l6.084,3.513l3.718-5.12c2.802,1.184,5.798,1.999,8.927,2.386l0.66,6.3h7.026l0.66-6.3
		c3.129-0.387,6.125-1.201,8.927-2.386l3.718,5.12l6.084-3.513l-2.579-5.788c2.464-1.868,4.663-4.067,6.531-6.531l5.788,2.579
		l3.513-6.084l-5.12-3.718c1.184-2.802,1.999-5.798,2.386-8.927L142.577,60.77z M80.058,57.258c0-12.59,10.207-22.797,22.797-22.797
		s22.797,10.207,22.797,22.797c0,12.591-10.207,22.797-22.797,22.797c-9.374,0-17.427-5.658-20.93-13.746"/>
</g>
<g id="Speech_Bubble">
	<g>
		<path style="fill:#263238;stroke:#263238;stroke-miterlimit:10;" d="M92.32,107.355H46.534c-3.513,0-6.361,2.848-6.361,6.361
			v29.457c0,3.513,2.848,6.361,6.361,6.361h26.108c2.418,2.904,8.666,10.47,9.031,11.566c0.338,1.012,0.675-7.262,0.825-11.566
			h9.821c3.513,0,6.361-2.848,6.361-6.361v-29.457C98.681,110.203,95.833,107.355,92.32,107.355z"/>
		<path style="fill:#FFFFFF;stroke:#263238;stroke-linecap:round;stroke-linejoin:round;stroke-miterlimit:10;" d="M90.506,105.541
			H44.72c-3.513,0-6.361,2.848-6.361,6.361v29.458c0,3.513,2.848,6.361,6.361,6.361h26.108c2.418,2.903,8.666,10.47,9.031,11.566
			c0.337,1.012,0.675-7.262,0.825-11.566h9.821c3.513,0,6.361-2.848,6.361-6.361v-29.458
			C96.867,108.389,94.019,105.541,90.506,105.541z"/>
	</g>
</g>
<g id="Check_Mark">
	<g>
		<path style="fill:#92E3A9;stroke:#263238;stroke-linecap:round;stroke-linejoin:round;stroke-miterlimit:10;" d="M66.706,138.249
			c-0.019,0-0.038,0-0.057,0c-1.014-0.02-1.949-0.55-2.487-1.41l-6.803-10.885c-0.878-1.405-0.451-3.256,0.954-4.134
			c1.403-0.879,3.256-0.451,4.134,0.954l4.364,6.982l13.742-20.23c0.931-1.37,2.797-1.728,4.167-0.796
			c1.371,0.931,1.727,2.796,0.796,4.167l-16.328,24.038C68.628,137.757,67.698,138.249,66.706,138.249z"/>
	</g>
</g>
<g id="Mug">
	<g>
		<path style="fill:#FFFFFF;stroke:#263238;stroke-linecap:round;stroke-linejoin:round;stroke-miterlimit:10;" d="M228.014,364.184
			c-4.698,0-8.507,4.115-8.507,9.191s3.809,9.191,8.507,9.191c4.698,0,8.507-4.115,8.507-9.191S232.713,364.184,228.014,364.184z
			 M228.014,378.673c-2.709,0-4.905-2.372-4.905-5.299c0-2.927,2.196-5.299,4.905-5.299c2.709,0,4.905,2.372,4.905,5.299
			C232.919,376.301,230.723,378.673,228.014,378.673z"/>
		
			<rect x="230.373" y="360.472" style="fill:#FFFFFF;stroke:#263238;stroke-linecap:round;stroke-linejoin:round;stroke-miterlimit:10;" width="23.358" height="29.197"/>
	</g>
</g>
<g id="Device">
	<g>
		<polygon style="fill:#92E3A9;stroke:#263238;stroke-linecap:round;stroke-linejoin:round;stroke-miterlimit:10;" points="
			386.057,337.754 305.775,337.754 291.133,385.721 371.415,385.721 		"/>
		<polygon style="fill:#FFFFFF;stroke:#263238;stroke-linecap:round;stroke-linejoin:round;stroke-miterlimit:10;" points="
			380.062,340.783 309.921,340.783 297.128,382.692 367.269,382.692 		"/>
		
			<rect x="257.87" y="385.993" style="fill:#92E3A9;stroke:#263238;stroke-linecap:round;stroke-linejoin:round;stroke-miterlimit:10;" width="113.545" height="3.676"/>
		
			<rect x="322.942" y="385.993" style="fill:#263238;stroke:#263238;stroke-linecap:round;stroke-linejoin:round;stroke-miterlimit:10;" width="48.472" height="3.676"/>
	</g>
</g>
<g id="Table">
	<g>
		<path style="fill:#FFFFFF;stroke:#263238;stroke-linecap:round;stroke-linejoin:round;stroke-miterlimit:10;" d="M226.849,397.212
			l-9.564,74.111c-0.155,1.061,0.667,2.012,1.739,2.012l0,0c0.824,0,1.538-0.573,1.716-1.378l14.23-74.744H226.849z"/>
		<path style="fill:#FFFFFF;stroke:#263238;stroke-linecap:round;stroke-linejoin:round;stroke-miterlimit:10;" d="M256.134,397.212
			l-9.564,81.957c-0.155,1.061,0.667,2.012,1.739,2.012l0,0c0.825,0,1.538-0.573,1.716-1.378l14.23-82.591H256.134z"/>
		<path style="fill:#FFFFFF;stroke:#263238;stroke-linecap:round;stroke-linejoin:round;stroke-miterlimit:10;" d="M369.29,397.212
			l9.564,81.957c0.155,1.061-0.667,2.012-1.739,2.012l0,0c-0.824,0-1.538-0.573-1.716-1.378l-14.23-82.591H369.29z"/>
		<path style="fill:#FFFFFF;stroke:#263238;stroke-linecap:round;stroke-linejoin:round;stroke-miterlimit:10;" d="M340.005,397.212
			l9.564,74.111c0.155,1.061-0.667,2.012-1.739,2.012l0,0c-0.824,0-1.538-0.573-1.716-1.378l-14.23-74.744H340.005z"/>
		<rect x="216.613" y="389.52" style="fill:#263238;" width="163.543" height="9.641"/>
	</g>
</g>
<g id="Character_4">
	<g>
		<path style="fill:#92E3A9;stroke:#263238;stroke-linecap:round;stroke-linejoin:round;stroke-miterlimit:10;" d="M444.617,241.685
			H330.129c-2.52,0-4.563-2.043-4.563-4.563V27.194c0-2.52,2.043-4.563,4.563-4.563h114.487c2.52,0,4.563,2.043,4.563,4.563v209.927
			C449.18,239.642,447.137,241.685,444.617,241.685z"/>
		<path style="fill:#EDEDED;stroke:#263238;stroke-miterlimit:10;" d="M426.788,43.494h-78.829c-2.39,0-4.328,1.938-4.328,4.328
			v89.539c0,2.391,1.938,4.328,4.328,4.328h78.829c2.391,0,4.328-1.938,4.328-4.328V47.822
			C431.116,45.432,429.178,43.494,426.788,43.494z"/>
		<path style="fill:#263238;" d="M407.072,154.516h-39.398c-1.219,0-2.206-0.988-2.206-2.206l0,0c0-1.218,0.988-2.206,2.206-2.206
			h39.398c1.219,0,2.206,0.988,2.206,2.206l0,0C409.279,153.528,408.291,154.516,407.072,154.516z"/>
		<g>
			
				<line style="fill:none;stroke:#263238;stroke-linecap:round;stroke-linejoin:round;stroke-miterlimit:10;" x1="412.866" y1="163.971" x2="431.657" y2="163.971"/>
			
				<line style="fill:none;stroke:#263238;stroke-linecap:round;stroke-linejoin:round;stroke-miterlimit:10;" x1="357.077" y1="163.971" x2="409.399" y2="163.971"/>
			
				<line style="fill:none;stroke:#263238;stroke-linecap:round;stroke-linejoin:round;stroke-miterlimit:10;" x1="343.089" y1="163.971" x2="353.925" y2="163.971"/>
			
				<line style="fill:none;stroke:#263238;stroke-linecap:round;stroke-linejoin:round;stroke-miterlimit:10;" x1="365.272" y1="170.905" x2="431.657" y2="170.905"/>
			
				<line style="fill:none;stroke:#263238;stroke-linecap:round;stroke-linejoin:round;stroke-miterlimit:10;" x1="343.089" y1="170.905" x2="361.49" y2="170.905"/>
			
				<line style="fill:none;stroke:#263238;stroke-linecap:round;stroke-linejoin:round;stroke-miterlimit:10;" x1="381.347" y1="177.84" x2="431.657" y2="177.84"/>
			
				<line style="fill:none;stroke:#263238;stroke-linecap:round;stroke-linejoin:round;stroke-miterlimit:10;" x1="343.089" y1="177.84" x2="378.195" y2="177.84"/>
			
				<line style="fill:none;stroke:#263238;stroke-linecap:round;stroke-linejoin:round;stroke-miterlimit:10;" x1="412.866" y1="184.774" x2="431.657" y2="184.774"/>
			
				<line style="fill:none;stroke:#263238;stroke-linecap:round;stroke-linejoin:round;stroke-miterlimit:10;" x1="358.969" y1="184.774" x2="408.768" y2="184.774"/>
			
				<line style="fill:none;stroke:#263238;stroke-linecap:round;stroke-linejoin:round;stroke-miterlimit:10;" x1="343.089" y1="184.774" x2="355.817" y2="184.774"/>
		</g>
		<g>
			<polygon style="fill:#263238;stroke:#263238;stroke-miterlimit:10;" points="351.441,200.232 352.995,205.014 358.023,205.014 
				353.955,207.969 355.509,212.75 351.441,209.795 347.374,212.75 348.928,207.969 344.86,205.014 349.888,205.014 			"/>
			<polygon style="fill:#263238;stroke:#263238;stroke-miterlimit:10;" points="369.407,200.232 370.961,205.014 375.988,205.014 
				371.921,207.969 373.475,212.75 369.407,209.795 365.34,212.75 366.893,207.969 362.826,205.014 367.854,205.014 			"/>
			<polygon style="fill:#263238;stroke:#263238;stroke-miterlimit:10;" points="387.373,200.232 388.927,205.014 393.954,205.014 
				389.887,207.969 391.44,212.75 387.373,209.795 383.306,212.75 384.859,207.969 380.792,205.014 385.819,205.014 			"/>
			<polygon style="fill:#EDEDED;stroke:#263238;stroke-miterlimit:10;" points="405.339,200.232 406.892,205.014 411.92,205.014 
				407.853,207.969 409.406,212.75 405.339,209.795 401.271,212.75 402.825,207.969 398.758,205.014 403.785,205.014 			"/>
			<polygon style="fill:#EDEDED;stroke:#263238;stroke-miterlimit:10;" points="423.305,200.232 424.858,205.014 429.886,205.014 
				425.818,207.969 427.372,212.75 423.305,209.795 419.237,212.75 420.791,207.969 416.723,205.014 421.751,205.014 			"/>
		</g>
		<g>
			<g>
				<path style="fill:#BABABA;stroke:#263238;stroke-linecap:round;stroke-linejoin:round;stroke-miterlimit:10;" d="
					M407.354,141.689l1.428-35.452c0,0-10.536-3.763-10.987-3.763c-0.452,0-1.054-14.023-1.054-14.023l-21.824,2.107l-0.151,11.314
					l-11.439,4.816l2.65,35H407.354z"/>
				<path style="fill:#FFFFFF;stroke:#263238;stroke-linecap:round;stroke-linejoin:round;stroke-miterlimit:10;" d="
					M397.795,102.474c-0.452,0-1.054-14.023-1.054-14.023l-21.824,2.107l-0.151,11.313l-2.813,1.184
					c2.604,3.511,12.397,16.364,15.907,15.974c3.059-0.34,9.015-10.824,11.775-15.991
					C398.621,102.7,397.905,102.474,397.795,102.474z"/>
				<polygon style="fill:#263238;stroke:#263238;stroke-linecap:round;stroke-linejoin:round;stroke-miterlimit:10;" points="
					378.414,90.221 374.917,90.559 374.766,101.872 371.954,103.057 389.818,100.191 				"/>
			</g>
			<g>
				<path style="fill:#263238;stroke:#263238;stroke-linecap:round;stroke-linejoin:round;stroke-miterlimit:10;" d="
					M376.874,55.038c0,0-3.01-0.151-3.612,0.602c-0.602,0.753-7.225,11.138-6.773,12.944c0.452,1.806,2.709,6.02,2.709,6.02
					l1.806,6.472l1.355-10.837l7.375-7.225l16.556,4.967l1.656,8.73l1.204,0.301c0,0,0.602-3.763,0.753-4.365
					c0.151-0.602,2.86-10.235,2.107-12.342c-0.753-2.107-17.459-9.181-20.319-8.88C378.83,51.727,376.874,55.038,376.874,55.038z"/>
				<path style="fill:#FFFFFF;stroke:#263238;stroke-linecap:round;stroke-linejoin:round;stroke-miterlimit:10;" d="
					M371.004,78.969c0,0-2.709-4.967-3.462,0.15c-0.753,5.117,4.365,7.375,4.365,7.375L371.004,78.969z"/>
				<path style="fill:#FFFFFF;stroke:#263238;stroke-linecap:round;stroke-linejoin:round;stroke-miterlimit:10;" d="
					M397.945,76.712c0,0,2.559-2.709,3.311,0.602c0.753,3.311-2.559,7.375-2.559,7.375L397.945,76.712z"/>
				<path style="fill:#FFFFFF;stroke:#263238;stroke-linecap:round;stroke-linejoin:round;stroke-miterlimit:10;" d="
					M370.401,71.143c0,0,1.957,17.159,2.258,18.513c0.301,1.355,10.837,10.235,11.439,10.687c0.602,0.451,4.214,1.054,5.719-0.151
					c1.505-1.204,8.579-11.439,8.88-12.342c0.301-0.903-1.054-21.975-1.054-21.975l-8.429-3.763c0,0,1.957,2.408,0.451,2.559
					s-10.084-4.816-10.084-4.816L370.401,71.143z"/>
				<path style="fill:none;stroke:#263238;stroke-linecap:round;stroke-linejoin:round;stroke-miterlimit:10;" d="M382.141,69.637
					c0,0-3.913-1.806-6.622,1.355"/>
				<path style="fill:none;stroke:#263238;stroke-linecap:round;stroke-linejoin:round;stroke-miterlimit:10;" d="M387.409,69.938
					c0,0,3.161-3.01,6.472,0.151"/>
				<path style="fill:none;stroke:#263238;stroke-linecap:round;stroke-linejoin:round;stroke-miterlimit:10;" d="M387.259,71.594
					c0,0,0.301,6.021,0.452,6.773c0.151,0.753,1.806,1.355,0.602,2.709c-1.204,1.355-3.462,1.957-4.365,0.602"/>
				<path style="fill:none;stroke:#263238;stroke-linecap:round;stroke-linejoin:round;stroke-miterlimit:10;" d="M379.583,84.538
					c0,0,3.161,3.311,6.622,2.86s5.87-3.763,5.87-3.763"/>
				<path style="fill:#263238;" d="M380.185,74.905c0,0.914-0.472,1.656-1.054,1.656c-0.582,0-1.054-0.741-1.054-1.656
					c0-0.914,0.472-1.656,1.054-1.656C379.713,73.25,380.185,73.991,380.185,74.905z"/>
				<path style="fill:#263238;" d="M392.677,74.905c0,0.914-0.472,1.656-1.054,1.656c-0.582,0-1.054-0.741-1.054-1.656
					c0-0.914,0.472-1.656,1.054-1.656C392.206,73.25,392.677,73.991,392.677,74.905z"/>
			</g>
			<g>
				<path style="fill:#92E3A9;stroke:#263238;stroke-linecap:round;stroke-linejoin:round;stroke-miterlimit:10;" d="
					M375.197,141.689c-0.234-21.671-0.43-39.817-0.43-39.817s-24.793,9.819-25.738,9.934c-1.671,0.203-2.049,15.762-3.677,29.883
					H375.197z"/>
				<path style="fill:#92E3A9;stroke:#263238;stroke-linecap:round;stroke-linejoin:round;stroke-miterlimit:10;" d="
					M364.682,115.418c0.695,1.216,4.044,14.904,6.754,26.271h3.547l-0.217-39.817c-1.204-2.709-16.556,4.666-17.158,5.719
					C357.006,108.645,363.478,113.311,364.682,115.418z"/>
			</g>
			<g>
				<path style="fill:#92E3A9;stroke:#263238;stroke-linecap:round;stroke-linejoin:round;stroke-miterlimit:10;" d="
					M428.438,141.689c-0.942-14.332-4.27-29.72-4.759-29.883c-0.903-0.301-25.738-9.934-25.738-9.934s-0.196,18.146-0.43,39.817
					H428.438z"/>
				<path style="fill:#92E3A9;stroke:#263238;stroke-linecap:round;stroke-linejoin:round;stroke-miterlimit:10;" d="
					M401.272,141.689c2.71-11.367,6.06-25.055,6.754-26.271c1.204-2.107,7.676-6.773,7.074-7.827
					c-0.602-1.054-15.954-8.429-17.158-5.719l-0.217,39.817H401.272z"/>
			</g>
		</g>
	</g>
</g>
<g id="Character_2">
	<g>
		<path style="fill:#92E3A9;stroke:#263238;stroke-linecap:round;stroke-linejoin:round;stroke-miterlimit:10;" d="M256.745,241.685
			H142.258c-2.52,0-4.563-2.043-4.563-4.563V27.194c0-2.52,2.043-4.563,4.563-4.563h114.487c2.52,0,4.563,2.043,4.563,4.563v209.927
			C261.308,239.642,259.265,241.685,256.745,241.685z"/>
		<path style="fill:#EDEDED;stroke:#263238;stroke-miterlimit:10;" d="M238.916,43.494h-78.829c-2.39,0-4.328,1.938-4.328,4.328
			v89.539c0,2.391,1.938,4.328,4.328,4.328h78.829c2.391,0,4.328-1.938,4.328-4.328V47.822
			C243.244,45.432,241.306,43.494,238.916,43.494z"/>
		<path style="fill:#263238;" d="M219.201,154.516h-39.398c-1.219,0-2.206-0.988-2.206-2.206l0,0c0-1.218,0.988-2.206,2.206-2.206
			h39.398c1.219,0,2.206,0.988,2.206,2.206l0,0C221.407,153.528,220.419,154.516,219.201,154.516z"/>
		<g>
			
				<line style="fill:none;stroke:#263238;stroke-linecap:round;stroke-linejoin:round;stroke-miterlimit:10;" x1="224.994" y1="163.971" x2="243.785" y2="163.971"/>
			
				<line style="fill:none;stroke:#263238;stroke-linecap:round;stroke-linejoin:round;stroke-miterlimit:10;" x1="169.206" y1="163.971" x2="221.527" y2="163.971"/>
			
				<line style="fill:none;stroke:#263238;stroke-linecap:round;stroke-linejoin:round;stroke-miterlimit:10;" x1="155.217" y1="163.971" x2="166.054" y2="163.971"/>
			
				<line style="fill:none;stroke:#263238;stroke-linecap:round;stroke-linejoin:round;stroke-miterlimit:10;" x1="177.4" y1="170.905" x2="243.785" y2="170.905"/>
			
				<line style="fill:none;stroke:#263238;stroke-linecap:round;stroke-linejoin:round;stroke-miterlimit:10;" x1="155.217" y1="170.905" x2="173.618" y2="170.905"/>
			
				<line style="fill:none;stroke:#263238;stroke-linecap:round;stroke-linejoin:round;stroke-miterlimit:10;" x1="193.475" y1="177.84" x2="243.785" y2="177.84"/>
			
				<line style="fill:none;stroke:#263238;stroke-linecap:round;stroke-linejoin:round;stroke-miterlimit:10;" x1="155.217" y1="177.84" x2="190.323" y2="177.84"/>
			
				<line style="fill:none;stroke:#263238;stroke-linecap:round;stroke-linejoin:round;stroke-miterlimit:10;" x1="224.994" y1="184.774" x2="243.785" y2="184.774"/>
			
				<line style="fill:none;stroke:#263238;stroke-linecap:round;stroke-linejoin:round;stroke-miterlimit:10;" x1="171.097" y1="184.774" x2="220.897" y2="184.774"/>
			
				<line style="fill:none;stroke:#263238;stroke-linecap:round;stroke-linejoin:round;stroke-miterlimit:10;" x1="155.217" y1="184.774" x2="167.945" y2="184.774"/>
		</g>
		<g>
			<polygon style="fill:#263238;stroke:#263238;stroke-miterlimit:10;" points="163.57,200.232 165.123,205.014 170.151,205.014 
				166.084,207.969 167.637,212.75 163.57,209.795 159.503,212.75 161.056,207.969 156.989,205.014 162.016,205.014 			"/>
			<polygon style="fill:#263238;stroke:#263238;stroke-miterlimit:10;" points="181.536,200.232 183.089,205.014 188.117,205.014 
				184.049,207.969 185.603,212.75 181.536,209.795 177.468,212.75 179.022,207.969 174.954,205.014 179.982,205.014 			"/>
			<polygon style="fill:#263238;stroke:#263238;stroke-miterlimit:10;" points="199.501,200.232 201.055,205.014 206.082,205.014 
				202.015,207.969 203.569,212.75 199.501,209.795 195.434,212.75 196.988,207.969 192.92,205.014 197.948,205.014 			"/>
			<polygon style="fill:#EDEDED;stroke:#263238;stroke-miterlimit:10;" points="217.467,200.232 219.021,205.014 224.048,205.014 
				219.981,207.969 221.535,212.75 217.467,209.795 213.4,212.75 214.953,207.969 210.886,205.014 215.913,205.014 			"/>
			<polygon style="fill:#EDEDED;stroke:#263238;stroke-miterlimit:10;" points="235.433,200.232 236.986,205.014 242.014,205.014 
				237.947,207.969 239.5,212.75 235.433,209.795 231.365,212.75 232.919,207.969 228.852,205.014 233.879,205.014 			"/>
		</g>
		<g>
			<path style="fill:#263238;stroke:#263238;stroke-miterlimit:10;" d="M231.417,104.739c0,0,1.918-1.599,2.078-6.235
				c0.16-4.636-4.636-7.833-4.636-7.833s0.64-3.197,0.16-5.755s-5.595-4.636-5.595-4.636s0.48-2.878-0.32-5.435
				s-4.476-3.357-4.476-3.357c-7.396-10.297-15.976-7.569-17.505-6.974c-1.529-0.595-10.109-3.323-17.505,6.974
				c0,0-3.677,0.799-4.476,3.357s-0.32,5.435-0.32,5.435s-5.115,2.078-5.595,4.636s0.16,5.755,0.16,5.755s-4.796,3.197-4.636,7.833
				c0.16,4.636,2.078,6.235,2.078,6.235s-2.878,1.758-2.878,3.996c0,2.238,2.718,5.755,5.116,6.395
				c2.263,0.604,25.46,0.068,28.056,0.006c2.595,0.062,25.792,0.598,28.056-0.006c2.398-0.639,5.116-4.156,5.116-6.395
				C234.295,106.497,231.417,104.739,231.417,104.739z"/>
			<g>
				<path style="fill:#FFFFFF;stroke:#263238;stroke-miterlimit:10;" d="M214.933,84.242c0,0,0.154-3.283,2.097-2.125
					c1.943,1.157-0.298,6.331-1.293,7.51c-0.995,1.18-2.321,1.893-2.321,1.893l1.003-6.336L214.933,84.242z"/>
				<g>
					<polygon style="fill:#92E3A9;stroke:#263238;stroke-linecap:round;stroke-linejoin:round;stroke-miterlimit:10;" points="
						239.482,141.689 235.477,123.826 210.808,110.215 189.966,110.428 165.085,122.337 159.584,141.689 					"/>
					<polygon style="fill:#FFFFFF;stroke:#263238;stroke-miterlimit:10;" points="211.85,141.689 210.808,110.215 189.966,110.428 
						189.966,141.689 					"/>
					<polygon style="fill:#FFFFFF;stroke:#263238;stroke-miterlimit:10;" points="191.03,98.519 189.966,110.428 199.749,125.74 
						210.807,110.215 207.83,98.306 					"/>
					<path style="fill:#FFFFFF;stroke:#263238;stroke-miterlimit:10;" d="M185.62,82.94c0,0,1.512,10.587,2.571,13.04
						c1.06,2.453,5.594,8.228,9.043,9.843c3.449,1.615,6.095,0.306,7.432-0.642s5.061-5.195,7.107-8.726
						c2.046-3.531,2.793-14.436,2.793-14.436l-0.812-7.729c0,0-16.457-9.837-19.888-9.343c-3.431,0.495-9.785,13.2-9.386,14.72
						C184.88,81.188,185.62,82.94,185.62,82.94z"/>
					<path style="fill:none;stroke:#263238;stroke-miterlimit:10;" d="M197.938,93.732c0,0,1.574,1.512,4.343,0.084"/>
					<path style="fill:none;stroke:#263238;stroke-miterlimit:10;" d="M196.986,97.563c0,0,3.058,2.438,7.069-0.405"/>
					<path style="fill:none;stroke:#263238;stroke-miterlimit:10;" d="M190.346,82.158c0,0,2.792-1.896,5.68-0.863"/>
					<path style="fill:none;stroke:#263238;stroke-miterlimit:10;" d="M204.008,81.469c0,0,3.704-1.317,5.704,1.129"/>
					<path style="fill:#263238;" d="M194.521,85.818c-0.035,0.745-0.432,1.351-0.886,1.354c-0.454,0.004-0.794-0.597-0.759-1.342
						c0.035-0.745,0.432-1.351,0.886-1.354C194.216,84.473,194.556,85.074,194.521,85.818z"/>
					<path style="fill:#263238;" d="M206.98,85.724c-0.035,0.745-0.432,1.351-0.886,1.354c-0.454,0.003-0.794-0.597-0.759-1.342
						c0.035-0.745,0.432-1.351,0.886-1.354C206.675,84.379,207.015,84.98,206.98,85.724z"/>
					<path style="fill:#263238;stroke:#263238;stroke-miterlimit:10;" d="M195.87,69.854c0,0-0.782,1.647-1.849,4.35
						c-1.067,2.704-3.779,5.42-5.335,6.017c-1.555,0.598-3.094,0.844-3.094,0.844s0.97,1.868,0.029,1.875
						c-0.94,0.007-1.765-2.448-1.765-2.448s-3.14-8.18-1.186-14.758s7.796-8.38,7.796-8.38s3.03-4.476,11.561-3.486
						c8.531,0.99,12.832,4.474,15.816,13.475c2.984,9.002-1.478,13.957-2.093,14.548c-0.615,0.591-0.211,1.994-0.815,2.35
						c-0.604,0.356-1.339-1.513-1.339-1.513s-4.288-1.257-7.699-3.692c-3.41-2.435-7.388-7.796-8.274-8.962
						C196.737,68.91,195.87,69.854,195.87,69.854z"/>
				</g>
				<path style="fill:#FFFFFF;stroke:#263238;stroke-miterlimit:10;" d="M185.62,82.94c0,0-1.322-1.865-2.34-0.217
					c-1.017,1.648-0.556,4.34,0.424,5.974c0.981,1.633,3.313,2.706,3.313,2.706L185.62,82.94z"/>
			</g>
			<polyline style="fill:none;stroke:#263238;stroke-linecap:round;stroke-linejoin:round;stroke-miterlimit:10;" points="
				192.306,129.993 199.749,125.74 207.192,129.993 			"/>
			<path style="fill:none;stroke:#263238;stroke-linecap:round;stroke-linejoin:round;stroke-miterlimit:10;" d="M186.564,114.256
				c-1.306,7.462-2.612,14.923-3.917,22.385"/>
			<path style="fill:none;stroke:#263238;stroke-linecap:round;stroke-linejoin:round;stroke-miterlimit:10;" d="M214.848,114.468
				c1.171,7.375,2.341,14.75,3.512,22.125"/>
		</g>
	</g>
</g>
<g id="Character_3">
	<g>
		
			<rect x="344.465" y="22.661" style="fill:#263238;stroke:#263238;stroke-linecap:round;stroke-linejoin:round;stroke-miterlimit:10;" width="8.014" height="219.047"/>
		<path style="fill:#92E3A9;stroke:#263238;stroke-linecap:round;stroke-linejoin:round;stroke-miterlimit:10;" d="M341.749,248.6
			H219.458c-2.52,0-4.563-2.043-4.563-4.563V20.279c0-2.52,2.043-4.563,4.563-4.563h122.292c2.52,0,4.563,2.043,4.563,4.563v223.757
			C346.313,246.557,344.27,248.6,341.749,248.6z"/>
		<g>
			<path style="fill:#EDEDED;stroke:#263238;stroke-miterlimit:10;" d="M322.78,37.896h-84.353c-2.39,0-4.328,1.938-4.328,4.328
				v95.738c0,2.39,1.938,4.328,4.328,4.328h84.353c2.39,0,4.328-1.938,4.328-4.328V42.224
				C327.108,39.834,325.17,37.896,322.78,37.896z"/>
			<g>
				<path style="fill:#92E3A9;stroke:#263238;stroke-linecap:round;stroke-linejoin:round;stroke-miterlimit:10;" d="
					M317.744,110.104l-26.023-13.838l-11.117,0.428l-11.117-0.428l-26.023,13.838c-1.244,0.662-2.076,1.901-2.216,3.303
					l-2.888,28.883h41.8h0.889h41.8l-2.888-28.883C319.82,112.006,318.988,110.766,317.744,110.104z"/>
				<polygon style="fill:#A8A8A8;stroke:#263238;stroke-linecap:round;stroke-linejoin:round;stroke-miterlimit:10;" points="
					269.633,83.582 269.633,95.87 280.627,110.529 291.621,95.87 290.974,83.367 				"/>
				<g>
					<path style="fill:#A8A8A8;stroke:#263238;stroke-linecap:round;stroke-linejoin:round;stroke-miterlimit:10;" d="
						M290.408,48.603c0,0,4.157,3.876,4.813,6.171c0.656,2.295-0.008,21.27-1.395,25.307c-1.387,4.037-5.237,11.111-9.574,13.509
						c-4.338,2.398-9.684,0.453-12.603-3.552c-2.92-4.005-4.679-10.216-5.183-12.388s-1.425-21.677-0.502-24.831
						c0.922-3.154,8.374-7.684,13.202-8.048C283.993,44.405,288.268,46.74,290.408,48.603z"/>
					<path style="fill:none;stroke:#263238;stroke-linecap:round;stroke-linejoin:round;stroke-miterlimit:10;" d="M284.424,75.222
						c0,0-0.914,1.902-3.512,2.312c-2.599,0.41-4.298-1.22-4.535-2.169"/>
					<path style="fill:#263238;stroke:#263238;stroke-linecap:round;stroke-linejoin:round;stroke-miterlimit:10;" d="
						M284.727,64.838c0,0,4.801,0.922,5.892,1.252c1.092,0.329,1.599-1.584-1.413-2.283
						C286.195,63.109,283.15,63.101,284.727,64.838z"/>
					<path style="fill:#263238;stroke:#263238;stroke-linecap:round;stroke-linejoin:round;stroke-miterlimit:10;" d="M277,64.596
						c0,0-4.742,1.189-5.813,1.579c-1.072,0.39-1.685-1.493,1.283-2.358C275.439,62.952,278.479,62.774,277,64.596z"/>
					<path style="fill:#263238;" d="M284.865,68.781c0.087,0.835,0.65,1.461,1.258,1.398s1.03-0.792,0.943-1.627
						c-0.087-0.836-0.65-1.462-1.258-1.398C285.2,67.217,284.778,67.946,284.865,68.781z"/>
					<path style="fill:#263238;" d="M273.227,69.16c0.087,0.836,0.65,1.461,1.258,1.398c0.608-0.063,1.03-0.792,0.943-1.627
						c-0.087-0.835-0.65-1.461-1.258-1.398C273.562,67.596,273.14,68.324,273.227,69.16z"/>
					<path style="fill:#263238;stroke:#263238;stroke-linecap:round;stroke-linejoin:round;stroke-miterlimit:10;" d="
						M282.026,77.557c0,0,5.449,0.266,6.214,2.272c0.765,2.006,0.613,8.555-0.808,10.927c-1.421,2.372-5.432,3.902-7.647,3.994
						c-2.215,0.092-5.166-1.547-6.12-2.699s-1.733-3.295-1.92-5.082c-0.186-1.788-1.029-5.871,0.876-7.598
						C274.528,77.643,282.026,77.557,282.026,77.557z"/>
					<g>
						<path style="fill:#C2C2C2;stroke:#263238;stroke-linecap:round;stroke-linejoin:round;stroke-miterlimit:10;" d="
							M273.569,81.774c0,0,3.613-1.35,6.254-1.347s6.389,1.281,6.389,1.281s-1.083,4.283-5.759,4.771
							C275.778,86.966,273.569,81.774,273.569,81.774z"/>
						<path style="fill:none;stroke:#263238;stroke-linecap:round;stroke-linejoin:round;stroke-miterlimit:10;" d="M286.212,81.708
							c0,0-7.349,2.851-12.643,0.066"/>
					</g>
					<path style="fill:none;stroke:#263238;stroke-linecap:round;stroke-linejoin:round;stroke-miterlimit:10;" d="M284.602,71.589
						c0,0,2.14,1.862,2.994,2.051"/>
					<path style="fill:none;stroke:#263238;stroke-linecap:round;stroke-linejoin:round;stroke-miterlimit:10;" d="M274.961,72.454
						c0,0-1.398,1.258-2.361,1.358"/>
					<path style="fill:#A8A8A8;stroke:#263238;stroke-linecap:round;stroke-linejoin:round;stroke-miterlimit:10;" d="
						M295.411,67.265c0,0,2.094-2.581,3.258-0.757c1.163,1.825,0.086,7.498-1.16,8.879c-1.246,1.381-3.005,1.842-3.005,1.842
						L295.411,67.265z"/>
					<path style="fill:#A8A8A8;stroke:#263238;stroke-linecap:round;stroke-linejoin:round;stroke-miterlimit:10;" d="
						M265.638,67.031c0,0-2.719-2.08-3.278-0.771c-0.559,1.309-0.49,4.639,0.579,6.89c1.069,2.252,3.427,3.535,3.427,3.535
						L265.638,67.031z"/>
				</g>
				<polygon style="fill:#92E3A9;stroke:#263238;stroke-linecap:round;stroke-linejoin:round;stroke-miterlimit:10;" points="
					268.339,90.265 264.674,96.517 275.237,111.175 277.824,102.337 				"/>
				<polygon style="fill:#92E3A9;stroke:#263238;stroke-linecap:round;stroke-linejoin:round;stroke-miterlimit:10;" points="
					291.836,90.265 295.501,96.517 284.938,111.175 282.351,102.337 				"/>
				<polygon style="fill:#92E3A9;stroke:#263238;stroke-linecap:round;stroke-linejoin:round;stroke-miterlimit:10;" points="
					282.351,102.337 280.627,110.529 283.711,107.341 				"/>
				<polygon style="fill:#92E3A9;stroke:#263238;stroke-linecap:round;stroke-linejoin:round;stroke-miterlimit:10;" points="
					277.824,102.337 280.627,110.529 276.529,106.784 				"/>
				
					<line style="fill:none;stroke:#263238;stroke-linecap:round;stroke-linejoin:round;stroke-miterlimit:10;" x1="280.604" y1="136.066" x2="280.604" y2="139.623"/>
				
					<line style="fill:none;stroke:#263238;stroke-linecap:round;stroke-linejoin:round;stroke-miterlimit:10;" x1="280.604" y1="112.497" x2="280.604" y2="133.62"/>
				<path style="fill:none;stroke:#263238;stroke-linecap:round;stroke-linejoin:round;stroke-miterlimit:10;" d="M307.306,125.289
					c-1.289,5.249-2.723,11.565-3.357,16.779"/>
				<path style="fill:none;stroke:#263238;stroke-linecap:round;stroke-linejoin:round;stroke-miterlimit:10;" d="M309.73,114.721
					c0.301-0.134-0.508,2.936-1.628,7.375"/>
				<path style="fill:none;stroke:#263238;stroke-linecap:round;stroke-linejoin:round;stroke-miterlimit:10;" d="M250.206,114.721
					c-0.688-0.307,4.413,16.089,5.781,27.348"/>
			</g>
		</g>
		<path style="fill:#263238;" d="M301.547,155.927h-41.886c-1.295,0-2.346-1.05-2.346-2.346l0,0c0-1.296,1.05-2.346,2.346-2.346
			h41.886c1.295,0,2.346,1.05,2.346,2.346l0,0C303.892,154.877,302.842,155.927,301.547,155.927z"/>
		<g>
			
				<line style="fill:none;stroke:#263238;stroke-linecap:round;stroke-linejoin:round;stroke-miterlimit:10;" x1="307.706" y1="165.98" x2="327.684" y2="165.98"/>
			
				<line style="fill:none;stroke:#263238;stroke-linecap:round;stroke-linejoin:round;stroke-miterlimit:10;" x1="248.395" y1="165.98" x2="304.02" y2="165.98"/>
			
				<line style="fill:none;stroke:#263238;stroke-linecap:round;stroke-linejoin:round;stroke-miterlimit:10;" x1="233.524" y1="165.98" x2="245.044" y2="165.98"/>
			
				<line style="fill:none;stroke:#263238;stroke-linecap:round;stroke-linejoin:round;stroke-miterlimit:10;" x1="257.107" y1="173.352" x2="327.684" y2="173.352"/>
			
				<line style="fill:none;stroke:#263238;stroke-linecap:round;stroke-linejoin:round;stroke-miterlimit:10;" x1="233.524" y1="173.352" x2="253.086" y2="173.352"/>
			
				<line style="fill:none;stroke:#263238;stroke-linecap:round;stroke-linejoin:round;stroke-miterlimit:10;" x1="274.197" y1="180.724" x2="327.684" y2="180.724"/>
			
				<line style="fill:none;stroke:#263238;stroke-linecap:round;stroke-linejoin:round;stroke-miterlimit:10;" x1="233.524" y1="180.724" x2="270.846" y2="180.724"/>
			
				<line style="fill:none;stroke:#263238;stroke-linecap:round;stroke-linejoin:round;stroke-miterlimit:10;" x1="307.706" y1="188.096" x2="327.684" y2="188.096"/>
			
				<line style="fill:none;stroke:#263238;stroke-linecap:round;stroke-linejoin:round;stroke-miterlimit:10;" x1="250.406" y1="188.096" x2="303.35" y2="188.096"/>
			
				<line style="fill:none;stroke:#263238;stroke-linecap:round;stroke-linejoin:round;stroke-miterlimit:10;" x1="233.524" y1="188.096" x2="247.055" y2="188.096"/>
		</g>
		<g>
			<polygon style="fill:#263238;stroke:#263238;stroke-miterlimit:10;" points="242.404,204.53 244.055,209.614 249.4,209.614 
				245.076,212.755 246.728,217.839 242.404,214.697 238.079,217.839 239.731,212.755 235.407,209.614 240.752,209.614 			"/>
			<polygon style="fill:#263238;stroke:#263238;stroke-miterlimit:10;" points="261.504,204.53 263.155,209.614 268.5,209.614 
				264.176,212.755 265.828,217.839 261.504,214.697 257.18,217.839 258.831,212.755 254.507,209.614 259.852,209.614 			"/>
			<polygon style="fill:#263238;stroke:#263238;stroke-miterlimit:10;" points="280.604,204.53 282.255,209.614 287.6,209.614 
				283.276,212.755 284.928,217.839 280.604,214.697 276.279,217.839 277.931,212.755 273.607,209.614 278.952,209.614 			"/>
			<polygon style="fill:#263238;stroke:#263238;stroke-miterlimit:10;" points="299.704,204.53 301.355,209.614 306.7,209.614 
				302.376,212.755 304.028,217.839 299.704,214.697 295.379,217.839 297.031,212.755 292.707,209.614 298.052,209.614 			"/>
			<polygon style="fill:#263238;stroke:#263238;stroke-miterlimit:10;" points="318.804,204.53 320.455,209.614 325.8,209.614 
				321.476,212.755 323.128,217.839 318.804,214.697 314.48,217.839 316.131,212.755 311.807,209.614 317.152,209.614 			"/>
		</g>
	</g>
</g>
<g id="Character_1_00000000223990596362153870000015826751603722506922_">
	<g>
		<g>
			<path style="fill:#FFFFFF;stroke:#263238;stroke-linecap:round;stroke-linejoin:round;stroke-miterlimit:10;" d="
				M114.353,397.212l8.049,74.111c0.155,1.061-0.667,2.012-1.739,2.012l0,0c-0.825,0-1.538-0.573-1.716-1.378l-12.715-74.744
				H114.353z"/>
			<path style="fill:#FFFFFF;stroke:#263238;stroke-linecap:round;stroke-linejoin:round;stroke-miterlimit:10;" d="M40.534,397.212
				l-9.564,74.111c-0.155,1.061,0.667,2.012,1.739,2.012l0,0c0.825,0,1.538-0.573,1.716-1.378l14.23-74.744H40.534z"/>
			<polygon style="fill:#263238;stroke:#263238;stroke-linecap:round;stroke-linejoin:round;stroke-miterlimit:10;" points="
				114.932,401.659 114.353,397.212 106.231,397.212 107.137,401.659 			"/>
			<polygon style="fill:#263238;stroke:#263238;stroke-linecap:round;stroke-linejoin:round;stroke-miterlimit:10;" points="
				47.642,401.659 48.655,397.212 40.534,397.212 39.846,401.659 			"/>
		</g>
		<g>
			<path style="fill:#FFFFFF;stroke:#263238;stroke-linecap:round;stroke-linejoin:round;stroke-miterlimit:10;" d="M112.08,442.289
				l-6.238,10.567c0,0-4.978,5.516-5.651,10.225c-0.673,4.709-0.134,6.054,1.211,6.323s16.088,4.378,24.026,5.723
				c7.938,1.345,21.032,0.588,23.319-0.353c2.287-0.942,2.556-3.095,0.538-4.171s-17.074-8.868-20.168-11.424
				c-3.094-2.556-5.651-6.323-5.651-6.862c0-0.538,0.673-4.036,0.673-4.036L112.08,442.289z"/>
			<path style="fill:#92E3A9;stroke:#263238;stroke-linecap:round;stroke-linejoin:round;stroke-miterlimit:10;" d="
				M149.285,470.603c-1.335-0.712-8.369-4.36-13.877-7.489c-0.292,1.036-0.906,2.194-2.207,2.473
				c-2.346,0.503-23.599-7.734-29.548-9.939c-1.428,2.025-3.093,4.848-3.462,7.432c-0.673,4.709-0.134,6.054,1.211,6.323
				s16.088,4.378,24.026,5.723c7.938,1.345,21.032,0.588,23.319-0.353C151.034,473.832,151.303,471.68,149.285,470.603z"/>
		</g>
		<path style="fill:#263238;stroke:#263238;stroke-linecap:round;stroke-linejoin:round;stroke-miterlimit:10;" d="M140.785,377.714
			l-28.705,64.576c0,0,5.109,4.622,10.46,5.595c5.352,0.973,6.568,0.973,6.568,0.973s47.193-75.036,50.842-91.091
			c3.649-16.055-14.109-18.488-16.299-18.488c-2.189,0-53.518,4.865-53.518,4.865L62.94,370.659c0,0,3.024,18.465,24.443,19.321
			C113.448,391.023,140.785,377.714,140.785,377.714z"/>
		
			<line style="fill:none;stroke:#636363;stroke-linecap:round;stroke-linejoin:round;stroke-miterlimit:10;" x1="140.785" y1="377.714" x2="155.381" y2="363.848"/>
		
			<line style="fill:none;stroke:#636363;stroke-linecap:round;stroke-linejoin:round;stroke-miterlimit:10;" x1="160.489" y1="364.821" x2="149.056" y2="373.335"/>
		<g>
			<path style="fill:#FFFFFF;stroke:#263238;stroke-linecap:round;stroke-linejoin:round;stroke-miterlimit:10;" d="
				M125.946,318.844c0,0,47.923-12.163,53.032-8.028c5.109,4.135,32.111,102.657,34.3,106.793c2.189,4.135,9.001,9.974,11.19,10.704
				c2.189,0.73,10.947,3.406,10.217,5.352c-0.73,1.946-15.082,5.595-21.164,4.379c-6.082-1.216-27.732-7.784-28.948-10.947
				c-1.216-3.163,9.487-15.812,2.919-26.516c-6.568-10.704-15.082-25.786-23.11-37.219c-8.028-11.433-7.298-22.867-7.298-22.867
				l-40.868,4.136L125.946,318.844z"/>
			<g>
				<path style="fill:#263238;stroke:#263238;stroke-linecap:round;stroke-linejoin:round;stroke-miterlimit:10;" d="
					M201.937,380.129c-8.774-29.789-19.87-66.811-22.96-69.313c-5.109-4.135-53.032,8.028-53.032,8.028l-9.731,25.786l40.868-4.135
					c0,0-0.73,11.433,7.298,22.867c4.151,5.911,8.429,12.797,12.504,19.55C182.185,378.58,192.035,372.979,201.937,380.129z"/>
				<path style="fill:none;stroke:#636363;stroke-linecap:round;stroke-linejoin:round;stroke-miterlimit:10;" d="M170.706,321.763
					c0,0-8.757,9.974-10.947,15.569"/>
				<path style="fill:none;stroke:#636363;stroke-linecap:round;stroke-linejoin:round;stroke-miterlimit:10;" d="M159.516,331.25
					c0,0-1.946,6.811-2.433,9.244"/>
			</g>
			<path style="fill:#92E3A9;stroke:#263238;stroke-linecap:round;stroke-linejoin:round;stroke-miterlimit:10;" d="
				M224.468,428.313c-0.275-0.091-0.622-0.264-1.024-0.503c-2.339,0.102-5.315-0.151-7.49-1.687
				c-4.135-2.919-9.487-6.325-17.758-10.947c-3.753-2.097-6.795-2.636-9.009-2.605c-1.376,6.711-5.384,12.522-4.614,14.525
				c1.216,3.162,22.867,9.73,28.948,10.947c6.082,1.216,20.434-2.433,21.164-4.379C235.414,431.718,226.657,429.042,224.468,428.313
				z"/>
			<path style="fill:#263238;stroke:#263238;stroke-linecap:round;stroke-linejoin:round;stroke-miterlimit:10;" d="M219.116,436.34
				c-9.001-1.216-18.731-9.731-25.786-11.19c-7.055-1.459-8.758,1.946-8.758,1.946c1.216,3.162,22.867,9.73,28.948,10.947
				c3.648,0.73,10.269-0.292,15.144-1.645C225.864,436.701,222.545,436.804,219.116,436.34z"/>
		</g>
		<g>
			<path style="fill:#263238;stroke:#263238;stroke-linecap:round;stroke-linejoin:round;stroke-miterlimit:10;" d="
				M157.595,267.712l-29.614,30.334c-0.939,1.041-0.505,2.704,0.824,3.153l24.387,8.235c1.124,0.38,2.367,0.083,3.198-0.764
				l35.658-36.34c0.974-0.993,0.382-2.672-1-2.833l-29.229-3.375C160.237,265.936,158.663,266.529,157.595,267.712z"/>
			<g>
				<path style="fill:#263238;" d="M157.474,270.839l-24.484,25.079c-0.777,0.861-0.417,2.236,0.681,2.607l20.163,6.808
					c0.93,0.314,1.957,0.068,2.644-0.632l29.481-30.045c0.805-0.821,0.315-2.209-0.827-2.342l-24.166-2.79
					C159.658,269.371,158.357,269.861,157.474,270.839z"/>
				<path style="opacity:0.37;fill:#FFFFFF;" d="M157.474,270.839l-24.484,25.079c-0.777,0.861-0.417,2.236,0.681,2.607
					l20.163,6.808c0.93,0.314,1.957,0.068,2.644-0.632l29.481-30.045c0.805-0.821,0.315-2.209-0.827-2.342l-24.166-2.79
					C159.658,269.371,158.357,269.861,157.474,270.839z"/>
			</g>
		</g>
		<path style="fill:#FFFFFF;stroke:#263238;stroke-linecap:round;stroke-linejoin:round;stroke-miterlimit:10;" d="M128.703,290.822
			c0,0,2.43-2.001,3.574-2.287c1.144-0.286,5.146-0.286,6.29-0.858c1.144-0.572,2.573-1.001,2.859,0.858
			c0.286,1.858-0.858,3.002-2.573,3.574c-1.715,0.572-6.433,1.43-6.433,1.43l-2.859,2.001L128.703,290.822z"/>
		<path style="fill:#92E3A9;stroke:#263238;stroke-linecap:round;stroke-linejoin:round;stroke-miterlimit:10;" d="M73.4,239.516
			c0,0-11.715,20.083-13.179,42.258c-1.464,22.175-2.72,86.189-0.209,88.49c2.51,2.301,40.375-6.904,53.973-17.572
			c13.598-10.669,18.828-24.476,18.828-24.476s-4.184-58.575-8.577-68.617c-4.393-10.041-20.366-22.436-23.086-23.482
			C98.429,235.071,73.4,239.516,73.4,239.516z"/>
		<g>
			<path style="fill:#92E3A9;stroke:#263238;stroke-linecap:round;stroke-linejoin:round;stroke-miterlimit:10;" d="M98.713,263.783
				c0,0-5.648,12.343-3.556,21.756c2.092,9.414,8.368,51.881,10.878,53.345c2.51,1.464,55.855-23.012,55.855-23.012l-4.393-14.225
				l-31.379,5.021c0,0,1.464-40.584-1.883-47.069c-3.347-6.485-4.811-12.761-18.2-11.297"/>
			<path style="fill:none;stroke:#263238;stroke-linecap:round;stroke-linejoin:round;stroke-miterlimit:10;" d="M114.428,321.505
				c-1.837,2.243-3.55,4.27-4.837,5.665"/>
			<path style="fill:none;stroke:#263238;stroke-linecap:round;stroke-linejoin:round;stroke-miterlimit:10;" d="M126.117,306.668
				c0,0-5.054,6.616-9.924,12.662"/>
			<path style="fill:none;stroke:#263238;stroke-linecap:round;stroke-linejoin:round;stroke-miterlimit:10;" d="M128.623,321.924
				c-0.678,1.317-1.38,2.478-2.088,3.363"/>
			<path style="fill:none;stroke:#263238;stroke-linecap:round;stroke-linejoin:round;stroke-miterlimit:10;" d="M134.694,305.204
				c0,0-1.986,7.423-4.629,13.622"/>
			<path style="fill:none;stroke:#263238;stroke-linecap:round;stroke-linejoin:round;stroke-miterlimit:10;" d="M139.715,306.04
				c0,0,0.418,7.531-0.837,12.343"/>
		</g>
		<polygon style="fill:#FFFFFF;stroke:#263238;stroke-linecap:round;stroke-linejoin:round;stroke-miterlimit:10;" points="
			157.497,301.647 162.518,300.811 164.609,310.852 160.844,312.526 		"/>
		<g>
			<path style="fill:#FFFFFF;stroke:#263238;stroke-linecap:round;stroke-linejoin:round;stroke-miterlimit:10;" d="
				M162.518,300.811c0,0,1.22-5.939,1.43-6.964c0.238-1.165,4.466-4.474,5.055-5.379c0.883-1.355,2.236-2.497,3.542-3.425
				c0.828-0.588,1.791-1.155,2.832-1.326c0.751-0.124,2.408-0.126,2.658,0.847c0.079,0.307-0.542,0.925-0.696,1.124
				c-2.89,3.715-4.635,5.654-4.017,5.322l7.605-6.936c0,0,1.255,2.51,0.418,4.812c-0.837,2.301-2.719,5.857-2.719,5.857
				s-2.51,7.531-4.602,9.414c-2.092,1.883-9.721,4.422-9.721,4.422L162.518,300.811z"/>
			<path style="fill:none;stroke:#263238;stroke-linecap:round;stroke-linejoin:round;stroke-miterlimit:10;" d="M173.322,291.011
				c0,0-1.422,2.176-2.164,3.846"/>
		</g>
		<path style="fill:#263238;stroke:#263238;stroke-linecap:round;stroke-linejoin:round;stroke-miterlimit:10;" d="M43.332,367.152
			c0,0,24.424,8.767,30.686,22.545H91.24c0,0-9.082-14.13-22.233-19.433C55.857,364.961,43.332,367.152,43.332,367.152z"/>
		<path style="fill:#A6A6A6;stroke:#263238;stroke-linecap:round;stroke-linejoin:round;stroke-miterlimit:10;" d="M50.444,296.164
			c-4.792-0.683-9.211,2.689-9.856,7.486c-1.719,12.779-5.396,41.358-5.396,51.916c0,13.777,4.07,13.464,5.01,13.464
			s25.05-4.384,45.089,18.787H40.534c-1.394,0-2.524,1.13-2.524,2.524v4.345c0,1.394,1.13,2.524,2.524,2.524h118.207
			c1.998,0,3.428-1.938,2.823-3.841c-3.443-10.83-25.452-52.08-65.314-76.944C64.624,296.7,60.841,297.647,50.444,296.164z"/>
		<g>
			<path style="fill:#FFFFFF;stroke:#263238;stroke-linecap:round;stroke-linejoin:round;stroke-miterlimit:10;" d="M79.361,397.212
				l-8.806,80.952c-0.155,1.061,0.667,2.012,1.739,2.012l0,0c0.825,0,1.538-0.573,1.716-1.378l13.473-81.585H79.361z"/>
			<path style="fill:#FFFFFF;stroke:#263238;stroke-linecap:round;stroke-linejoin:round;stroke-miterlimit:10;" d="
				M143.787,397.212l8.806,80.952c0.155,1.061-0.667,2.012-1.739,2.012l0,0c-0.824,0-1.538-0.573-1.716-1.378l-13.473-81.585
				H143.787z"/>
			<polygon style="fill:#263238;stroke:#263238;stroke-linecap:round;stroke-linejoin:round;stroke-miterlimit:10;" points="
				86.618,401.659 87.482,397.212 79.361,397.212 78.79,401.659 			"/>
			<polygon style="fill:#263238;stroke:#263238;stroke-linecap:round;stroke-linejoin:round;stroke-miterlimit:10;" points="
				144.357,401.659 143.787,397.212 135.665,397.212 136.529,401.659 			"/>
		</g>
		<g>
			<path style="fill:#FFFFFF;stroke:#263238;stroke-linecap:round;stroke-linejoin:round;stroke-miterlimit:10;" d="M119.07,185.848
				c0,0,5.255,5.928,4.311,9.296c-0.943,3.368-1.078,3.772-0.135,5.389c0.943,1.617,5.928,6.736,4.985,9.027
				c-0.943,2.29-4.446,3.638-4.446,3.638s0.135,13.204-1.752,14.147c-1.886,0.943-16.168,1.347-17.38,1.078
				c-1.213-0.27-3.772-16.841-3.907-22.635c-0.135-5.793,8.219-23.712,11.048-26.003C114.624,177.494,119.07,185.848,119.07,185.848
				z"/>
			
				<line style="fill:none;stroke:#263238;stroke-linecap:round;stroke-linejoin:round;stroke-miterlimit:10;" x1="103.772" y1="204.637" x2="128.232" y2="198.647"/>
			<path style="fill:#263238;stroke:#263238;stroke-linecap:round;stroke-linejoin:round;stroke-miterlimit:10;" d="
				M114.024,184.655c0,0,1.043,2.954-1.043,7.993c-2.085,5.039-9.209,11.99-9.209,11.99s0.348,16.855,1.738,20.156
				c1.39,3.301,8.514,3.997,7.993,5.039s-3.649,8.862-19.635,10.947c-15.986,2.085-27.281-3.823-31.625-8.688
				c-4.344-4.865-0.521-18.766,0.869-26.933c1.39-8.167,3.649-28.497,16.334-34.231c12.685-5.734,27.976,0.348,30.061,0.348
				c2.085,0,11.295-2.78,13.38,0.521c2.085,3.301-0.174,11.99-2.954,15.291c-2.78,3.301-3.128,4.344-3.823,3.475
				c-0.695-0.869-0.174-3.997-0.174-3.997L114.024,184.655z"/>
			<path style="fill:none;stroke:#263238;stroke-linecap:round;stroke-linejoin:round;stroke-miterlimit:10;" d="M122.977,196.626
				c0,0,3.638-0.943,4.581-0.135c0.943,0.808,2.425,7.141-1.617,8.219"/>
			<path style="fill:none;stroke:#263238;stroke-linecap:round;stroke-linejoin:round;stroke-miterlimit:10;" d="M122.303,193.662
				c0,0-2.425-1.213-4.177,1.886"/>
			<ellipse style="fill:#263238;" cx="121.023" cy="200.803" rx="0.741" ry="2.56"/>
			<path style="fill:none;stroke:#263238;stroke-linecap:round;stroke-linejoin:round;stroke-miterlimit:10;" d="M123.651,216.701
				c0,0-1.482,0.808-5.12-1.213"/>
		</g>
	</g>
</g>
</svg>
